<svg xmlns="http://www.w3.org/2000/svg" xmlns:xlink="http://www.w3.org/1999/xlink" preserveAspectRatio="xMidYMid" width="60" height="60" viewBox="0 0 60 60">
  <defs>
    <style>
      .cls-1 {
        fill: #efb44e;
        fill-rule: evenodd;
      }
    </style>
  </defs>
  <path d="M56.000,48.000 C56.000,48.000 55.214,53.900 43.000,54.000 L17.000,54.000 C17.000,54.000 4.584,54.084 3.000,48.000 C3.000,48.000 2.049,40.903 11.000,36.000 C11.000,36.000 13.382,33.984 19.000,41.000 C19.000,41.000 18.799,36.153 17.000,34.000 C17.000,34.000 16.796,30.319 28.000,31.000 C28.000,31.000 31.297,33.985 33.000,38.000 C33.000,38.000 34.047,33.903 33.000,31.000 C33.000,31.000 42.211,30.651 47.000,37.000 L47.000,42.000 C47.000,42.000 49.378,39.236 50.000,37.000 C50.000,37.000 57.044,41.483 56.000,48.000 ZM10.000,47.000 C8.895,47.000 8.000,47.895 8.000,49.000 C8.000,50.105 8.895,51.000 10.000,51.000 C11.105,51.000 12.000,50.105 12.000,49.000 C12.000,47.895 11.105,47.000 10.000,47.000 ZM34.000,27.000 C34.000,27.000 28.129,21.744 33.000,17.000 C33.000,17.000 36.848,15.335 33.000,9.000 C33.000,9.000 39.811,13.474 37.000,18.000 C35.158,20.394 33.709,19.540 34.000,27.000 ZM25.000,27.000 C25.000,27.000 19.129,21.744 24.000,17.000 C24.000,17.000 27.848,15.335 24.000,9.000 C24.000,9.000 30.811,13.474 28.000,18.000 C26.158,20.394 24.709,19.540 25.000,27.000 Z" class="cls-1"/>
</svg>
