<svg xmlns="http://www.w3.org/2000/svg" xmlns:xlink="http://www.w3.org/1999/xlink" preserveAspectRatio="xMidYMid" width="60" height="60" viewBox="0 0 60 60">
  <defs>
    <style>
      .cls-1 {
        fill: #5422ff;
        fill-rule: evenodd;
      }
    </style>
  </defs>
  <path d="M51.724,28.283 C49.845,30.579 48.414,29.391 48.414,29.391 L40.690,23.848 L38.483,23.848 L28.552,53.783 C28.552,53.783 26.758,54.971 25.241,53.783 C23.725,52.594 23.795,49.681 24.138,49.348 L29.655,34.935 L28.552,34.935 L25.241,40.478 C25.241,40.478 24.287,42.401 23.034,41.587 C21.782,40.773 20.197,39.978 20.828,38.261 L26.345,23.848 L26.345,21.630 C26.345,21.630 22.620,26.734 21.931,30.500 C21.931,30.500 20.108,31.343 17.517,29.391 C17.517,29.391 16.743,26.889 20.828,21.630 C20.828,21.630 26.328,13.091 35.172,16.087 C35.172,16.087 40.268,17.165 52.828,24.957 C52.828,24.957 53.604,25.986 51.724,28.283 ZM35.719,14.969 C32.975,14.969 30.750,12.737 30.750,9.984 C30.750,7.232 32.975,5.000 35.719,5.000 C38.463,5.000 40.688,7.232 40.688,9.984 C40.688,12.737 38.463,14.969 35.719,14.969 ZM21.937,51.016 C21.937,53.768 19.713,56.000 16.969,56.000 C14.225,56.000 12.000,53.768 12.000,51.016 C12.000,48.263 14.225,46.031 16.969,46.031 C19.713,46.031 21.937,48.263 21.937,51.016 Z" class="cls-1"/>
</svg>
