<svg xmlns="http://www.w3.org/2000/svg" xmlns:xlink="http://www.w3.org/1999/xlink" preserveAspectRatio="xMidYMid" width="60" height="60" viewBox="0 0 60 60">
  <defs>
    <style>
      .cls-1 {
        fill: #24d3f0;
        fill-rule: evenodd;
      }
    </style>
  </defs>
  <path d="M33.017,31.822 L32.967,31.822 C32.900,31.892 32.799,31.925 32.664,31.925 L25.569,38.544 L25.370,47.967 L23.206,50.125 C23.139,50.192 23.006,50.223 22.802,50.223 C22.536,50.223 22.341,50.141 22.226,49.971 C22.109,49.805 22.015,49.619 21.951,49.422 L20.640,44.209 C20.607,44.040 20.523,43.926 20.388,43.859 C20.252,43.790 20.137,43.758 20.037,43.758 C19.701,43.758 19.431,43.881 19.231,44.135 C19.031,44.385 18.844,44.593 18.676,44.757 C18.109,45.228 17.404,45.461 16.562,45.461 C15.792,45.461 15.405,45.094 15.405,44.358 C15.405,43.989 15.464,43.624 15.582,43.256 C15.701,42.890 15.877,42.572 16.111,42.302 L16.967,41.350 C16.967,41.315 16.984,41.283 17.015,41.248 C17.051,41.216 17.069,41.181 17.069,41.148 C17.168,41.047 17.218,40.945 17.218,40.846 C17.218,40.714 17.150,40.586 17.015,40.471 C16.884,40.355 16.748,40.281 16.616,40.246 L11.233,38.939 C10.863,38.807 10.678,38.522 10.678,38.086 L10.678,38.038 C10.678,38.003 10.697,37.922 10.728,37.787 L12.791,35.731 C12.858,35.699 12.951,35.650 13.067,35.581 C13.182,35.514 13.259,35.481 13.295,35.481 L22.048,35.481 C22.081,35.481 22.156,35.454 22.276,35.407 C22.391,35.355 22.469,35.298 22.503,35.230 L28.993,28.310 C29.060,28.245 29.095,28.125 29.095,27.959 C29.095,27.626 28.959,27.392 28.692,27.256 L6.304,19.988 C6.136,19.952 6.046,19.861 6.027,19.710 C6.010,19.563 6.000,19.434 6.000,19.337 L6.000,19.093 C6.000,18.990 6.034,18.909 6.101,18.843 L7.863,17.138 C7.896,17.071 7.971,17.004 8.088,16.938 C8.203,16.873 8.297,16.838 8.366,16.838 L39.660,16.838 L47.304,8.769 C47.842,8.199 48.520,7.765 49.346,7.465 C50.168,7.163 50.960,7.012 51.735,7.012 C52.238,7.012 52.702,7.124 53.119,7.338 C53.538,7.556 53.832,7.965 54.000,8.564 L54.000,8.967 L54.000,9.368 C54.000,10.005 53.900,10.706 53.698,11.475 C53.496,12.243 53.146,12.845 52.642,13.278 L44.392,21.150 C44.291,21.217 44.234,21.328 44.215,21.476 C44.198,21.626 44.190,21.735 44.190,21.801 L44.190,51.578 C44.190,51.647 44.170,51.828 44.139,52.130 C44.103,52.431 44.089,52.615 44.089,52.681 C44.089,52.748 44.062,52.825 44.012,52.907 C43.965,52.991 43.906,53.051 43.835,53.085 L42.226,54.738 C41.990,54.908 41.805,54.988 41.671,54.988 C41.338,54.988 41.106,54.809 40.971,54.438 L33.727,32.482 C33.690,32.314 33.609,32.162 33.475,32.029 C33.333,31.892 33.182,31.822 33.017,31.822 Z" class="cls-1"/>
</svg>
