<svg xmlns="http://www.w3.org/2000/svg" xmlns:xlink="http://www.w3.org/1999/xlink" preserveAspectRatio="xMidYMid" width="60" height="60" viewBox="0 0 60 60">
  <defs>
    <style>
      .cls-1 {
        fill: #36df61;
        fill-rule: evenodd;
      }
    </style>
  </defs>
  <path d="M8.000,54.000 L8.000,49.000 L12.000,49.000 L12.000,18.000 L11.000,18.000 L11.000,15.000 L30.000,15.000 L30.000,18.000 L29.000,18.000 L29.000,32.000 L32.000,32.000 L32.000,10.000 L48.000,6.000 L48.000,49.000 L52.000,49.000 L52.000,54.000 L8.000,54.000 ZM16.000,19.000 L14.000,19.000 L14.000,22.000 L16.000,22.000 L16.000,19.000 ZM16.000,25.000 L14.000,25.000 L14.000,28.000 L16.000,28.000 L16.000,25.000 ZM16.000,31.000 L14.000,31.000 L14.000,34.000 L16.000,34.000 L16.000,31.000 ZM16.000,37.000 L14.000,37.000 L14.000,40.000 L16.000,40.000 L16.000,37.000 ZM16.000,43.000 L14.000,43.000 L14.000,46.000 L16.000,46.000 L16.000,43.000 ZM26.000,19.000 L24.000,19.000 L24.000,46.000 L26.000,46.000 L26.000,19.000 ZM36.000,14.000 L34.000,14.000 L34.000,17.000 L36.000,17.000 L36.000,14.000 ZM36.000,20.000 L34.000,20.000 L34.000,23.000 L36.000,23.000 L36.000,20.000 ZM36.000,25.000 L34.000,25.000 L34.000,28.000 L36.000,28.000 L36.000,25.000 ZM36.000,31.000 L34.000,31.000 L34.000,34.000 L36.000,34.000 L36.000,31.000 ZM36.000,37.000 L34.000,37.000 L34.000,40.000 L36.000,40.000 L36.000,37.000 ZM36.000,43.000 L34.000,43.000 L34.000,46.000 L36.000,46.000 L36.000,43.000 ZM41.000,14.000 L39.000,14.000 L39.000,17.000 L41.000,17.000 L41.000,14.000 ZM41.000,20.000 L39.000,20.000 L39.000,23.000 L41.000,23.000 L41.000,20.000 ZM41.000,25.000 L39.000,25.000 L39.000,28.000 L41.000,28.000 L41.000,25.000 ZM41.000,31.000 L39.000,31.000 L39.000,34.000 L41.000,34.000 L41.000,31.000 ZM41.000,37.000 L39.000,37.000 L39.000,40.000 L41.000,40.000 L41.000,37.000 ZM41.000,43.000 L39.000,43.000 L39.000,46.000 L41.000,46.000 L41.000,43.000 ZM46.000,14.000 L44.000,14.000 L44.000,17.000 L46.000,17.000 L46.000,14.000 ZM46.000,20.000 L44.000,20.000 L44.000,23.000 L46.000,23.000 L46.000,20.000 ZM46.000,25.000 L44.000,25.000 L44.000,28.000 L46.000,28.000 L46.000,25.000 ZM46.000,31.000 L44.000,31.000 L44.000,34.000 L46.000,34.000 L46.000,31.000 ZM46.000,37.000 L44.000,37.000 L44.000,40.000 L46.000,40.000 L46.000,37.000 ZM46.000,43.000 L44.000,43.000 L44.000,46.000 L46.000,46.000 L46.000,43.000 Z" class="cls-1"/>
</svg>
