<?xml version="1.0" encoding="utf-8"?>
<!-- Generator: Adobe Illustrator 19.0.0, SVG Export Plug-In . SVG Version: 6.00 Build 0)  -->
<svg version="1.1" id="Shape_688_1_" xmlns="http://www.w3.org/2000/svg" xmlns:xlink="http://www.w3.org/1999/xlink" x="0px"
	 y="0px" viewBox="0 0 85 60" style="enable-background:new 0 0 85 60;" xml:space="preserve">
<style type="text/css">
	.st0{fill-rule:evenodd;clip-rule:evenodd;fill:#FF0000;}
</style>
<g id="Shape_688">
	<g>
		<path class="st0" d="M16.3,21.8H15c-0.2,0.9,0,1.7-0.5,2.5c-0.6,0.9-1.6,1.6-2,2.7h-0.4c-1.3-2.1-3.2-3.9-4.7-5.8
			c-0.5-0.6-0.5-1.3-1.1-1.8c0.6-1,1.9-0.7,2-2.3c0.3,0.2,0.1,0.2,0.5,0.4c0.1-0.2,0.2-0.2,0.4-0.4c1.9-2.3-1.1-3.4-2.2-4.3
			c-5,0-3.4,4.9-6,5.8c0,1.1,0.3,1.3,0.5,2c-0.1,0.9-0.1,1.8-0.2,2.7c0.1,0.4,0.6,0.9,0.7,1.3v1.4c0.4,1.5,1.2,3.4,2.2,4.3
			c0.1,0.2-0.2,1.3,0,2c0.1,0.5,0.8,1.1,0.9,1.4v2c0,3.4-0.9,5.9-0.9,9c0,1.2-0.3,5.2,0.2,5.9c0.3,0.4,2.3,0.3,2.7,0.5
			c0.6,0,1.5,0.1,1.8-0.2c0.1-0.2,0.1,0,0.2-0.4C8.6,50.3,8,50,7.4,49.8c0.1-1.9,0.5-7.6,1.5-8.6c0.1-0.3,0-0.2,0.2-0.4
			c0.1,0.2,0.1,0.4,0.2,0.5C9.5,42.2,9,44.3,9,45.7c0.1,1.1,0.1,2.3,0.2,3.4c0.2,0.5,0.6,0.7,0.7,1.3c0.8,0.1,2.3,0.1,2.9,0.5
			c0.8,0,1.3,0.1,1.6-0.4h0.2v-0.2C14,50,13,49.8,12.5,49.3c-0.3-0.5,0-3.5,0-4.7c0-3.8,1.1-8.8-0.7-11.3c0.1-1.3,1-1.4,1.8-1.8
			c-0.2-0.8-0.5-0.8-1.3-0.9c0.1-2.1,1.5-1.9,2.4-3.1c0.5-0.7,0-1.3,0.2-2c0.2-0.7,1-1.4,1.3-2.2h0.5c0.1-0.7,0.2-0.6-0.2-1.1
			C16.4,22.1,16.3,21.9,16.3,21.8z M7.9,23c0.9,0.6,1.7,1.8,2.2,2.7C9,25,8.5,24.3,7.9,23z M61.6,20.7c-0.2-1-0.4-2-0.5-3.1
			c-0.3-0.7-1.1-1.3-1.5-2c-1-0.4-1.7-0.9-2.9-0.9c0-1.9,0.7-1.5,1.3-2.5c0.2-0.4,0.1-0.9,0.4-1.3c0-1.8-0.7-2.4-1.5-3.4
			c-4.7-1.3-2.4-0.1-4.9,1.8c0,0.5,0.1,0.5,0,0.7c-0.1,1.4-0.2,2.4,0.7,2.9v0.4c-0.2,0.2-0.4,0.5-0.5,0.7c-1.2-0.3-3.4-1.3-4.7-0.2
			h-0.2c0.4-1.1,1.4-1.6,2-2.5c0.7,0,1.6,0.1,2-0.2c0.7-0.4,0.3-1,0.5-1.4c-0.3-1.5-3.5-1.7-4.7-2.5c-0.5,0.2-0.5,0.3-0.9,0.5
			c-0.2,1.3-0.4,2.6-0.5,4c-0.4,0.7-1.4,1.2-1.8,1.8c-0.5,0.7-0.7,1.4-1.3,2c0,0.9,0.2,1,0.4,1.6c0.8,0.2,1.3,0.5,2.4,0.5
			c0,1.1,0.1,4-0.4,4.7v0.4h-0.2c-0.3-0.4-0.7-0.7-1.1-0.9c0.1-1.5,0-2.1-0.5-3.2c-1-0.3-1.9-0.3-3.1-0.2c-0.3,0.7-1.2,2.4-0.9,3.4
			c0.1,0.4,0.4,0.5,0.4,0.7c-0.3,0.7-0.9,0.5-1.3,1.1c-0.3,0.5,0,1.3-0.2,2c-0.3,1.1-1.2,2-1.5,3.2c-1.2,0-1.7,0.1-2.5,0v0.5
			c1.8,0.2,1.1,1.6,2.4,2.2c-0.7,0.4-5.1-0.2-6.4-0.4c0.4-1,0.1-1,0-2.2c0.6,0.1,1.2,0.3,1.6,0h0.4c-0.2-1.1-1-1.3-1.6-2
			c-0.3-0.4-0.4-0.9-0.4-1.6c2,0.3,2.8,0.4,4.6-0.2c0.1-0.4,0.2-0.7,0.4-0.9c0-3-2.6-3.7-4.9-4.5c-0.8-0.3-2.5-0.7-3.3,0
			c-0.4,0.1-0.4,0.2-0.7,0.4c-0.1,0.6-0.2,1.2-0.2,2c1.1,1.1,1.9,2.2,3.5,2.9c-0.1,0.4-0.1,0.4-0.2,0.7c-1.7,0.1-4.2-1.3-4-2.9
			c-2-0.3-3.3-1.9-5.5-2c0.2,1.3,2,2.9,3.1,3.2c0.1,1.4,0.4,2,0.4,3.6h-0.7c0.2,0.3,0.3,0.5,0.5,0.7c-0.6,0.8-1.5,0.7-2.4,1.1
			c0,0.5,0,1,0.2,1.3c0,1.7,0,3.3-0.5,4.3h-2.5c0,3-0.9,9.2,0.7,11.3c0.2,0.1,1.4-0.2,2.2-0.2c-0.1,0.6-0.4,1.2-0.7,1.6
			c0.1,0.4,0.2,0.4,0.4,0.7c0.4-0.1,0.4,0,0.5-0.2c0.4-0.5,0-1.4,0.4-2c0.1-0.1,0.7-0.6,0.9-0.9c0.5,0,0.7,0,0.9-0.2H23
			c-0.2,0.7-0.8,1.5-1.3,2c0.2,0.6-0.1,0.3,0.4,0.5c0.2,0.1,0,0.1,0.4,0.2c0.6-0.7,0.8-1.9,1.6-2.5c0.6-0.2,1.8,0.4,2.7-0.2
			c1.4,0.2,0.9,1,2.2,1.3c-0.2,0.4-0.1,0.3-0.4,0.5c0.2,0.5,0,0.3,0.5,0.5c0.2,0.1,0,0.1,0.4,0.2c0.5-0.9,1.3-1.8,1.6-2.7
			c0.4,0.1,0.5,0.5,0.7,0.5c0.8,0.3,1.2-0.4,2.2,0c0.3-0.6,0.3-0.4,0.2-1.1c0.6,0.5,1.2,1,1.8,1.4c-0.3,1.4-1.1,2.3-1.1,3.6
			c0.4,0,0.5,0,0.7-0.2c0.4-0.5,0.5-1.7,0.5-2.5c0.5,0,0.7,0,0.9-0.2c0.2,0.4,0.1,0.5,0,0.9c0.2,0.1,0.7,0.2,0.9,0.4
			c3,0.1,1.3-0.4,2.4-1.8c0.2-0.3,0.9-0.5,1.1-0.9c0.3-0.7-0.1-1.8,0.2-2.3v-0.2c1,0.5,2.2,3.3,2.2,5c0.2,0.2,0,0,0.2,0.2
			c0.5,0,0.6-0.1,0.9-0.2c-0.2-1.7-1.4-4.3-2.5-5.2c0.1-0.5,0.2-0.4,0.4-0.9h0.4c0.4,0.5,0.7,1.1,1.1,1.6h0.5c-0.3-2-2.1-2-2.2-4.3
			c-0.2,0.1-0.4,0.2-0.5,0.4v-0.2H42c0-0.5,0-0.7,0.2-0.9c0.2-0.7,0.2,0.1,0.4-0.7c0.2,0.2,0.2,0.3,0.4,0.5c0.9-0.1,1.8-0.4,2.4-0.9
			h0.4c0.2,1.2-0.1,2.6-0.4,3.8c0.5,0.4,1.2,0.8,1.6,1.3c0.5,0.7,1.3,6.9,1.3,8.5c-0.6,0.6-1.3,0.9-2.2,1.3c0,0.5,0.1,0.6,0.2,0.9
			c1.1,0,3.3,0.3,4-0.2h0.4c-0.1-2.2-0.1-4.3-0.2-6.5c0.7-3.4,0.9-7.6,0.9-11.5c0.6,0.8,1.6,4.2,1.8,5.2c0.2,0.9-0.4,1.3,0,2
			c0.4,0.3,1.2,0.3,1.6,0.5c0.9,0.7,2,4.4,2.4,5.6c0.2,0.7,0,1.6,0.4,2.2c0,1.1,0.2,1.2,0.5,1.8c1.2,0.3,2.2,0.6,3.8,0.5
			c0.1-0.3,0.1-0.6,0.2-0.9c-0.7-0.6-1.3-1-2.2-1.4c-0.9-2.2-0.4-4.9-1.1-7.6c-0.3-1.4-0.8-3.1-1.1-4.3c0.1-1,0.1-1.9,0.2-2.9
			c-0.1-0.3-0.3-1-0.2-1.6c0.1-0.6,0.5-1.5,0.5-2.2c0.1-1.6-0.6-1.9-0.9-2.7c-0.7-1.7,0.4-6.5,1.1-7.2v-0.2c0.8,0.4,0.9,1.7,1.3,2.5
			c0.7,1.3,1.6,2.7,2,4.1c0.3,1.1,0,1.9-0.2,2.7c-0.3,1.4,0.3,2.2,0.4,3.2c0.6-0.1,1-0.3,1.3-0.2c0.7-0.1,0.9-0.3,1.1-0.9
			c0.3-0.4,0.4-4.2,0.2-4.9C63.6,25.6,62.4,23,61.6,20.7z M35.4,29.5h0.7C35.8,30.2,35.8,30,35.4,29.5z M22.5,35.4
			c-0.5-0.3-0.5-0.8-1.1-1.1c0-1.7,0-3.1,0.5-4.1h0.5c-0.1,0.6-0.3,1.1-0.7,1.4c0.1,0.5,0.8,1.7,1.1,2.2
			C22.9,34.7,22.8,35,22.5,35.4z M23.6,25.5c0.8,0.6,1.2,1.2,2.2,1.6c-0.7,0.4-1.5,0.1-2,0.7h-0.4C23.4,27,23.4,26.2,23.6,25.5z
			 M23.8,35.3h-0.2v-1.8c0.9,0.4,1.8,0.8,2.7,1.3C25.6,35.2,24.4,34.6,23.8,35.3z M26.3,45h0.5C26.5,45.1,26.6,45.1,26.3,45z
			 M28.8,45.7c-0.3-0.1-0.2,0-0.4-0.2h-0.2c0.2-0.4,0.2-0.3,0.4-0.5h0.2V45.7z M28.8,41.7c-0.2-0.3-0.2-0.7-0.2-1.3
			C28.9,40.8,28.9,41.2,28.8,41.7z M30.3,40.7v0.2c-0.4-0.2-0.3-0.1-0.5-0.4C29.9,40.5,30.1,40.6,30.3,40.7z M29.8,41.6
			c0.1,0.2,0.1,0,0.2,0.4h-0.2V41.6z M30.1,45.2h-0.2v-0.4h0.2V45.2z M30.5,44.3v0.2h-0.2c-0.1-0.2-0.1-0.4-0.2-0.5h0.5
			C30.6,44.2,30.6,44.1,30.5,44.3z M32.1,45h-0.2v-0.4h0.2V45z M38.1,42.3h-0.2v-0.2c-0.1-0.2,0.1-1,0.2-1.6
			C38.5,41,38.2,41.7,38.1,42.3z M38.3,44.1c-0.1,0.3-0.1,0.6-0.2,0.9c-0.2-0.2-0.2-0.4-0.2-0.9H38.3z M33.9,44.3
			c-0.1-0.1-0.4-0.1-0.4-0.4C33.6,44,34.1,44.1,33.9,44.3z M35.8,44.6c-0.8-0.4-1.2-1.1-2-1.6v-0.4c0.4-0.2,1.1-0.2,1.8-0.2
			c-0.1-1.4-0.6-3.9,0.2-5c0.3-0.8,1-0.7,1.5-1.3h0.4c0.2,0.5,0.3,1.2,0.5,1.6C37.7,40.1,36.1,42.1,35.8,44.6z M37.6,41h-0.2v-0.4
			C37.6,40.8,37.5,40.7,37.6,41z M37.4,41.7c-0.1-0.2-0.1-0.2-0.2-0.5C37.4,41.4,37.3,41.4,37.4,41.7z M36.3,45.2h-0.2
			c0.1-1.2,0.6-1.8,0.7-2.9h0.4c-0.3,0.8-0.4,2.1-0.9,2.7V45.2z M37.4,44.3v2c-0.2-0.1-0.4-0.2-0.5-0.4c0-1,0.3-1.6,0.5-2.3
			C37.6,43.9,37.6,44,37.4,44.3z M37.6,43v-0.4C37.8,42.9,37.9,42.8,37.6,43z M39.4,47.3c-0.8,0-1.2-0.3-1.5-0.2h-0.2
			c0.1-0.4,0.1-0.8,0.2-1.3c0.1,0.2,0.2,0.6,0.4,0.7V47c0.2-0.2,0.2-0.1,0.4-0.4h0.9C39.5,46.8,39.5,47.1,39.4,47.3z M40,46.6
			c0.1-0.1,0.1-0.2,0.2-0.4C40.1,46.2,40.3,46.4,40,46.6z M42.9,41c-0.2,0.3-0.3,0.5-0.5,0.7v0.2h-0.2c-0.1-0.6-0.1-1.2-0.2-1.8
			C42.3,40.4,42.5,40.8,42.9,41z M42.1,37.6c-0.4-0.2,0-0.3,0-0.5h0.4C42.5,37.1,42.2,37.8,42.1,37.6z M46.7,7.7
			c0.5,0.4,1.1,0.7,1.6,1.1c-0.4,0.7-1.4,1.3-2,1.8v0.2h-0.2C46.3,9.8,46.4,8.5,46.7,7.7z M46.7,29.3V29c0.1,0.2,0.1,0,0.2,0.4H46.7
			z M48.1,23.4c-0.3,1.2-1,3.2-0.5,4.5c-0.2,0.1-0.4,0.2-0.5,0.4h-0.2c0.1-2.5,0.7-4-1.5-5c0-1.9,0.2-3.7,0.4-5.4
			c0.9,0,1.7-0.1,2.2,0.4h0.4C48.3,19.9,48.2,21.6,48.1,23.4z M83.5,24.5c-0.4-0.7-0.5,0.2-0.5-0.5c-1.6,0.2-1.6,1.1-2.7,1.6
			c-1.3,0.6-2.9,0.7-3.8,1.6c-0.4-0.1-0.4,0-0.5-0.2c-0.1-0.2-0.2-0.6-0.4-0.7c0.2-0.6,0.1-0.5,0.7-0.7c-0.3-1.3-0.6-2.5-0.9-3.8
			c-0.6-0.9-1.9-1-2.4-2.2c-0.4-0.9,0.8-1.8,1.1-2.5c0.3-0.7,0-1.2,0-2.2c-1-1-1.3-1.5-3.5-1.4c-1.2,1.9-0.2,3.5-0.4,5.4
			c-0.8,0.3-2.2,0.4-2.9,0.9c-0.8,0.3-3.3,5-2.9,6.5c0.2,0.9,1.1,2.1,1.8,2.5c-1.4,2.1-1.2,4.7,0.9,5.9c-0.4,4-0.7,8-1.1,12.1
			c-0.1,1-0.8,3.4-0.4,4.1v0.4c0.3,0.1,0.2,0,0.4,0.2c2.7,0,2.2-2.2,2.7-4.1c0.8-3,1.7-7.6,2-11c1.8,2.9-1.8,9-1.1,11
			c0,0.4,0,0.5,0.2,0.7c0.6,0.4,1.6,0.5,2.2,0.9c0.9,0,1.6,0.1,2-0.4c0.2-0.2,0,0,0.2-0.2c-0.7-0.5-1.1-1-1.6-1.6
			c0.6-3.8,2-7.2,2.2-11.7c0-1.4,0.6-3.7-0.2-4.9v-1.1c0.8-0.1,1.7,0.2,2.9,0.2c0.8-0.9,1.7-2.3,2.9-2.7c0.7-0.2,1.2,0.3,1.5,0.4
			c0.5,0.2,1.6-0.6,2-0.7c0.1-0.3,0-0.2,0.2-0.4C83.9,25.2,83.8,24.9,83.5,24.5z M67.3,27.3h-0.2c-0.1-0.6-0.4-1.1-0.7-1.4
			c0.1-0.7,0.3-0.8,0.5-1.3c0.6,0.4,0.2,1.8,0.4,2.2V27.3z"/>
	</g>
</g>
</svg>
