<?xml version="1.0" encoding="utf-8"?>
<!-- Generator: Adobe Illustrator 19.0.0, SVG Export Plug-In . SVG Version: 6.00 Build 0)  -->
<svg version="1.1" id="Layer_1" xmlns="http://www.w3.org/2000/svg" xmlns:xlink="http://www.w3.org/1999/xlink" x="0px" y="0px"
	 viewBox="-73 165 464 464" style="enable-background:new -73 165 464 464;" xml:space="preserve">
<style type="text/css">
	.st0{fill:#FFBD00;}
</style>
<path class="st0" d="M106.2,292.4c4-14,17-23.8,31.6-23.8c11,0,21.2,5.5,27.3,14.6l4,6c1.4,2.1,3.8,3.4,6.4,3.4
	c4.2,0,7.6-3.4,7.6-7.6c0-13.4,10.9-24.4,24.4-24.4h8.8c2.2,0,4.3-0.9,5.9-2.4l23.1-23.1c-7.6-37.2-38.7-66-77.1-70
	c2.9,12,11.7,22,23.8,26.1l4.9,1.6c10.9,3.6,18.2,13.8,18.2,25.2c0,14.7-11.9,26.6-26.6,26.6H186c-2.9,0-5.7-0.5-8.4-1.4l-14.8-4.9
	c-3.4-1.1-6.9-1.7-10.4-1.7H144c-8.8,0-17.1,3.4-23.3,9.7c-9.3,9.2-21.5,14.3-34.6,14.3H71.4c2,22.2,12.3,42,27.8,56.3L106.2,292.4z
	"/>
<path class="st0" d="M109.3,235c9.3-9.3,21.5-14.3,34.6-14.3h8.4c5.3,0,10.5,0.8,15.5,2.5l14.8,4.9c1.1,0.4,2.2,0.5,3.3,0.5h2.4
	c5.8,0,10.6-4.8,10.6-10.6c0-4.6-2.9-8.6-7.2-10l-4.9-1.6c-18.7-6.2-32.1-22.3-35.2-41.3c-42.5,3.5-76.4,37.3-80.3,79.6H86
	C94.8,244.6,103.1,241.2,109.3,235z"/>
<path class="st0" d="M84.1,324.6H56.2L67,400c1.7,11.7,11.9,20.6,23.8,20.6h173.3l13.7-96h-43.9c-18.9,19.7-45.5,32-74.9,32
	S103.1,344.3,84.1,324.6z"/>
<path class="st0" d="M247,596.6H71v16H39v16h240v-16h-32V596.6z"/>
<path class="st0" d="M233.4,269.5c-4.6,4.6-10.7,7.1-17.2,7.1h-8.8c-4.6,0-8.4,3.8-8.4,8.4c0,13-10.6,23.6-23.6,23.6
	c-7.9,0-15.3-3.9-19.7-10.5l-4-6c-3.1-4.7-8.4-7.5-14-7.5c-7.5,0-14.1,5-16.2,12.2l-8.7,30.6c13.4,8.3,29.2,13.2,46.2,13.2
	c47.3,0,86-37.6,87.8-84.5L233.4,269.5z"/>
<path class="st0" d="M367,292.6h-68.5L280,422.4c8.8,3.6,15,12.2,15,22.2c0,13.2-10.8,24-24,24h-4.4c2.8,4.7,4.4,10.1,4.4,16
	c0,17.6-14.4,32-32,32s-32-14.4-32-32c0-5.9,1.7-11.3,4.4-16H98.6c2.8,4.7,4.4,10.1,4.4,16c0,17.6-14.4,32-32,32s-32-14.4-32-32
	s14.4-32,32-32h200c4.4,0,8-3.6,8-8c0-4.4-3.6-8-8-8H90.8c-19.8,0-36.8-14.8-39.6-34.3l-13.4-93.7h33.7c-3.3-5.1-6.1-10.4-8.5-16
	H-49c-13.2,0-24,10.8-24,24v216h464v-216C391,303.4,380.2,292.6,367,292.6z"/>
<path class="st0" d="M255,484.6c0,8.8-7.2,16-16,16s-16-7.2-16-16s7.2-16,16-16S255,475.8,255,484.6z"/>
<path class="st0" d="M87,484.6c0,8.8-7.2,16-16,16s-16-7.2-16-16s7.2-16,16-16S87,475.8,87,484.6z"/>
<path class="st0" d="M-73,556.6c0,13.2,10.8,24,24,24h416c13.2,0,24-10.8,24-24v-8H-73V556.6z"/>
<path class="st0" d="M255,292.6c-2.4,5.6-5.2,11-8.5,16.1h33.6l2.3-16L255,292.6L255,292.6z"/>
<path class="st0" d="M351,244.6c13.2,0,24-10.8,24-24c0-13.2-10.8-24-24-24h-54.9l-13.7,96h16.2l6.9-48H351z M309.9,212.6H351
	c4.4,0,8,3.6,8,8c0,4.4-3.6,8-8,8h-43.3L309.9,212.6z"/>
</svg>
