<svg xmlns="http://www.w3.org/2000/svg" xmlns:xlink="http://www.w3.org/1999/xlink" preserveAspectRatio="xMidYMid" width="60" height="60" viewBox="0 0 60 60">
  <defs>
    <style>
      .cls-1 {
        fill: #12c804;
        fill-rule: evenodd;
      }
    </style>
  </defs>
  <path d="M55.000,55.000 L5.000,55.000 C3.895,55.000 3.000,54.105 3.000,53.000 L3.000,52.844 C3.000,51.739 3.895,50.844 5.000,50.844 L49.719,50.844 L49.719,26.896 L47.376,30.967 C46.802,31.963 45.532,32.305 44.538,31.729 C43.545,31.154 43.205,29.880 43.778,28.884 L52.086,14.450 C52.659,13.453 53.930,13.112 54.923,13.687 C55.916,14.263 56.257,15.537 55.683,16.533 L52.646,21.811 C53.367,22.113 53.875,22.825 53.875,23.656 L53.875,50.844 L55.000,50.844 C56.105,50.844 57.000,51.739 57.000,52.844 L57.000,53.000 C57.000,54.105 56.105,55.000 55.000,55.000 ZM35.192,24.792 L30.000,23.750 L27.923,28.958 L27.923,32.083 L36.231,37.292 L36.231,49.792 C36.231,49.792 36.202,50.833 34.154,50.833 C34.154,50.833 31.038,50.918 31.038,47.708 L31.038,40.417 L22.731,34.167 L22.731,40.417 L21.692,44.583 L13.385,49.792 C13.385,49.792 11.244,50.749 10.269,48.750 C9.294,46.751 11.308,45.625 11.308,45.625 L17.538,41.458 L18.577,33.125 L20.654,33.125 L19.615,31.042 C19.615,31.042 16.889,30.077 19.615,22.708 C19.615,22.708 21.832,11.328 27.923,15.417 C27.923,15.417 30.981,16.791 31.038,20.625 C31.038,20.625 38.842,20.339 39.346,23.750 C39.346,23.750 38.952,26.137 35.192,24.792 ZM29.484,14.375 C26.904,14.375 24.813,12.276 24.813,9.688 C24.813,7.099 26.904,5.000 29.484,5.000 C32.065,5.000 34.156,7.099 34.156,9.688 C34.156,12.276 32.065,14.375 29.484,14.375 Z" class="cls-1"/>
</svg>
